<svg viewBox="0 0 64 64" xmlns="http://www.w3.org/2000/svg">
  <defs>
    <linearGradient id="grad1" x1="0%" y1="0%" x2="100%" y2="100%">
      <stop offset="0%" style="stop-color:#9B59B6;stop-opacity:1" />
      <stop offset="100%" style="stop-color:#3498DB;stop-opacity:1" />
    </linearGradient>
    <linearGradient id="grad2" x1="0%" y1="0%" x2="100%" y2="100%">
      <stop offset="0%" style="stop-color:#F39C12;stop-opacity:1" />
      <stop offset="100%" style="stop-color:#E8B923;stop-opacity:1" />
    </linearGradient>
  </defs>
  
  <!-- Background circle -->
  <circle cx="32" cy="32" r="32" fill="url(#grad1)"/>
  
  <!-- Inner hexagon -->
  <path d="M 32 12 L 48 22 L 48 42 L 32 52 L 16 42 L 16 22 Z" 
        fill="none" stroke="white" stroke-width="2" opacity="0.6"/>
  
  <!-- Infinity symbol -->
  <path d="M 18 32 Q 22 26 26 32 Q 30 38 32 32 Q 34 26 38 32 Q 42 38 46 32 Q 42 26 38 32 Q 34 38 32 32 Q 30 26 26 32 Q 22 38 18 32 Z" 
        fill="url(#grad2)" stroke="white" stroke-width="1"/>
  
  <!-- Center dot -->
  <circle cx="32" cy="32" r="3" fill="white"/>
</svg>